<svg xmlns="http://www.w3.org/2000/svg" width="24px" height="24px" viewBox="0 0 18 18">
  <g id="local_phone-24px" transform="matrix(0.995, 0.105, -0.105, 0.995, 3.031, 0)">
    <path id="パス_4" data-name="パス 4" d="M0,0H32.019V29H0Z" fill="none"/>
    <path id="パス_5" data-name="パス 5" d="M8.233,12.954a20.808,20.808,0,0,0,9.526,8.421l3.18-2.811a1.574,1.574,0,0,1,1.474-.307,18.475,18.475,0,0,0,5.16.728,1.373,1.373,0,0,1,1.445,1.278v4.459A1.373,1.373,0,0,1,27.573,26C14,26,3,16.276,3,4.278A1.373,1.373,0,0,1,4.445,3H9.5A1.373,1.373,0,0,1,10.95,4.278a12.989,12.989,0,0,0,.824,4.562,1.18,1.18,0,0,1-.361,1.3Z" transform="translate(0)" fill="#fff"/>
  </g>
</svg>
